<svg width="20" height="20" viewBox="0 0 20 20" fill="none" xmlns="http://www.w3.org/2000/svg">
<path d="M15.8749 4.09301C15.1108 3.32144 14.2008 2.70965 13.1978 2.29332C12.1949 1.87698 11.1192 1.66442 10.0333 1.66801C5.48325 1.66801 1.77492 5.37635 1.77492 9.92635C1.77492 11.3847 2.15825 12.8013 2.87492 14.0513L1.70825 18.3347L6.08325 17.1847C7.29158 17.843 8.64992 18.193 10.0333 18.193C14.5833 18.193 18.2916 14.4847 18.2916 9.93468C18.2916 7.72635 17.4333 5.65135 15.8749 4.09301ZM10.0333 16.793C8.79992 16.793 7.59159 16.4597 6.53325 15.8347L6.28325 15.6847L3.68325 16.368L4.37492 13.8347L4.20825 13.5763C3.52287 12.4822 3.15902 11.2174 3.15825 9.92635C3.15825 6.14301 6.24158 3.05968 10.0249 3.05968C11.8583 3.05968 13.5833 3.77635 14.8749 5.07635C15.5146 5.7129 16.0215 6.47013 16.3663 7.30412C16.711 8.13811 16.8868 9.03225 16.8833 9.93468C16.8999 13.718 13.8166 16.793 10.0333 16.793ZM13.7999 11.6597C13.5916 11.5597 12.5749 11.0597 12.3916 10.9847C12.1999 10.918 12.0666 10.8847 11.9249 11.0847C11.7833 11.293 11.3916 11.7597 11.2749 11.893C11.1583 12.0347 11.0333 12.0513 10.8249 11.943C10.6166 11.843 9.94992 11.618 9.16658 10.918C8.54992 10.368 8.14158 9.69301 8.01658 9.48468C7.89992 9.27635 7.99992 9.16801 8.10825 9.05968C8.19992 8.96801 8.31659 8.81801 8.41659 8.70135C8.51659 8.58468 8.55825 8.49301 8.62492 8.35968C8.69159 8.21801 8.65825 8.10135 8.60825 8.00135C8.55825 7.90135 8.14158 6.88468 7.97492 6.46801C7.80825 6.06801 7.63325 6.11801 7.50825 6.10968H7.10825C6.96658 6.10968 6.74992 6.15968 6.55825 6.36801C6.37492 6.57635 5.84159 7.07635 5.84159 8.09301C5.84159 9.10968 6.58325 10.093 6.68325 10.2263C6.78325 10.368 8.14158 12.4513 10.2083 13.343C10.6999 13.5597 11.0833 13.6847 11.3833 13.7763C11.8749 13.9347 12.3249 13.9097 12.6833 13.8597C13.0833 13.8013 13.9083 13.3597 14.0749 12.8763C14.2499 12.393 14.2499 11.9847 14.1916 11.893C14.1333 11.8013 14.0083 11.7597 13.7999 11.6597Z" fill="#2E2E2E"/>
</svg>
