<svg xmlns="http://www.w3.org/2000/svg" viewBox="0 0 493 142"><defs><style>.cls-1{fill:#fefdfd;}.cls-2{fill:#f4272e;}.cls-3{fill:#f03137;}.cls-4{fill:#737373;}.cls-5{fill:#717171;}.cls-6{fill:#e64247;}</style></defs><g id="Capa_2" data-name="Capa 2"><g id="Capa_1-2" data-name="Capa 1"><path class="cls-1" d="M246.5,141.9q-121.2,0-242.41.1C.67,142,0,141.33,0,137.91Q.22,70.74,0,3.58C0,.6.61,0,3.59,0Q246.5.14,489.41,0c3,0,3.58.6,3.58,3.58q-.18,67.16,0,134.33c0,3.42-.67,4.1-4.09,4.09Q367.71,141.82,246.5,141.9ZM77.52,112a.32.32,0,0,0,.39-.35l.66-.67.26-.07,0-.26.69-.67.29-.25c1.69-.62,2.38-2.65,4.54-2.8,4.25-.31,7.37-2.95,10-5.95,13-14.73,23.07-31.28,28.7-50.19,1.9-6.37,3.91-13.21-.95-19.51A2.33,2.33,0,0,1,122.4,29c2.53-2.49,1.55-6.71,4.78-9,1.27-.91,1.07-3.51-.26-5s-3-1.26-4.56-.37a3.56,3.56,0,0,0-1.85,4.19c1.48,7.88-.05,9.43-7.57,7.76-1-.21-2-.41-2.92-.64-15.64-3.68-25.15.49-33,14.48-3.76,8.2-8.34,16.11-9.09,25.47C73.53,59,76.16,50.76,79.77,43c2.39-5.25,5.52-9.82,11.4-11.55a35.79,35.79,0,0,1,21,.16c5,1.52,7.3,4.74,7,10a37.1,37.1,0,0,1-2.93,12c-6,14.28-13.06,27.92-22.47,40.27-3.15,4.13-6.52,8-11.9,9.23h-2l-1-.07-.2,0-2.7-.82A53.18,53.18,0,0,1,65.5,95.53c-1.6-1.29-3-2.3-5.19-.43-6.41,5.57-13.66,4.92-21.07,2.38C33.6,95.54,28.79,92,22.76,88c2,14.08,7,25.13,16.21,34.11a6.67,6.67,0,0,0,4.11,1.53C53,124,62.67,123.35,71,117a16.59,16.59,0,0,0,5.49-4.16.42.42,0,0,0,.48-.4A.46.46,0,0,0,77.52,112ZM185.28,97a.43.43,0,0,0,.23-.57.87.87,0,0,0,.53-1.29,83,83,0,0,1,11-18.77c3.86-4.79,5.89-4.69,9.77.17,4.81,6,8,13,11.15,20,.89,1.95,1.6,4.48,4.46,3.5,2.68-.93,2.5-3.57,1.7-5.53-3.86-9.43-8.45-18.49-15.89-25.66-4.13-4-8.64-3.84-12.86.08-6.3,5.84-10.27,13.27-13.79,21a15.54,15.54,0,0,0-2.71,6.3,3.34,3.34,0,0,0,1.78,3.75c1.48.82,2.84.83,3.61-1,.23,0,.33-.14.28-.37C185.32,98.26,185.39,97.67,185.28,97ZM330.49,66.65l-.08-.09c.45-3-1.84-2.48-3.36-2.34-2.48.23-3.73,1.9-3.72,4.39,0,4.79.09,9.58.14,14.37a10.87,10.87,0,0,0,1.91,8c.72,1.11,1,2.57,2.37,3.19,4.95,7,20.28,7.53,27.1,5.25A3.46,3.46,0,0,0,357,95.3c-.4-2.18-2.09-2.32-3.78-2.34-4.29,0-8.59,0-12.89,0-7.44-3.13-8.21-4.34-8.21-12.86,0-3.3.06-6.6,0-9.89C332,68.87,332.75,67.05,330.49,66.65Zm85.17,29.23.15,2.16c1.07,2.48,3.21,2.15,5.09,1.62C423.11,99,423,97,423,95.09c0-5.16,0-10.31,0-15.47,0-8.24,0-8.24,8.41-8.79l1.49-.12a2.92,2.92,0,0,0,3-3.23,2.88,2.88,0,0,0-3.1-3.15c-8.81,0-17.62,0-26.42,0-2.2,0-4,1-4,3.52s2.21,2.58,4,2.9c3.07.56,6.31-.76,9.28.86q.22,8.67.43,17.35C416,91.27,415.81,93.58,415.66,95.88ZM383.13,64a8.74,8.74,0,0,0-6.79,2.64,49.27,49.27,0,0,0-5.86,6.68A110,110,0,0,0,360,92.84c-1.09,2.64-1.87,5.42,1.72,7.15,3.79,1.83,4.8-.73,6.06-3.43,2.71-5.8,5.34-11.64,9-17,5.75-8.41,7.15-8.37,12.88,0,3.84,5.6,6.38,11.84,9.42,17.84,1,2,2,3.83,4.84,2.94s3.26-3,2.93-5.46a11.65,11.65,0,0,0-.68-2.35c-2.7-7.83-7-14.83-11.92-21.39C391.56,67.56,388.5,63.65,383.13,64ZM293.24,84.92a32.89,32.89,0,0,0,17.67-.21c4.31-1.12,8.17-2.93,8.48-8.27S316,69,311.91,67.21c-9.67-4.2-19.66-3.73-29.68-1.78-2.54.49-5.6,1.23-4.65,5,.89,3.58,3.94,2.11,6.23,2.24a5.25,5.25,0,0,0,1.88-.56c7-2.59,13.86-1.44,20.65.78,1.6.52,4.09.87,3.94,3.11s-2.68,2.73-4.56,3c-4,.59-8.06.88-12.14,1.3a1.87,1.87,0,0,1-.26-.76c.09-3-.66-5.38-4.3-5.17-3.38.19-3.69,2.58-3.65,5.31.09,5.15.06,10.31,0,15.46,0,2.85.6,4.92,4.1,4.82,3.18-.09,3.83-1.94,3.77-4.62C293.18,91.89,293.24,88.41,293.24,84.92ZM476.75,95a1.73,1.73,0,0,0-.13-1.11c-4.37-10.16-9-20.17-17.41-27.75-3.76-3.4-9.27-2.83-12.91.83-7.54,7.59-12.33,16.84-16.44,26.59-1.41,3.33,0,5.3,2.42,6.58,3,1.58,4-1.18,5-3.19,2.94-5.52,5.5-11.27,8.78-16.58,5.79-9.35,8.17-9.2,14.3,0,3.58,5.38,6.12,11.29,8.87,17.1,1,2.19,2.61,2.71,4.81,2.37C476.48,99.51,476.86,97.87,476.75,95ZM142.62,87.08c0,1.83.15,3.67,0,5.48-.43,4.5,1.43,6.7,6,7.31a35.53,35.53,0,0,0,19.47-2.5c5.9-2.61,9.47-7.22,9.57-13.94s-3.85-11.22-9.56-14c-8.71-4.17-18-4.11-27.3-2.57-2.12.35-4.71,1.26-3.83,4.09s3.22,1.2,5.1.88c8.31-1.41,16.57-1.89,24,3.06s6.73,14-1.26,17.9c-4,2-8.27,2.15-12.63,2.16-3.17,0-4.6-1.28-4.53-4.41s0-6.32.13-9.47c.09-2.18.64-4.83-2.51-4.88s-2.53,2.85-2.64,4.87S142.62,85.09,142.62,87.08ZM242,99.87c3.57.1,5.67-2.05,7.56-4.42,5.73-7.21,9.73-15.38,13.12-23.88.83-2.08,1-4.12-1.35-5.09-2.65-1.1-3.36,1.13-4.13,3a105.59,105.59,0,0,1-9.14,18.22c-4.82,7.34-7.37,7.3-12.09,0-3.79-5.89-6.54-12.28-9.28-18.7-.7-1.65-1.66-3.67-4-2.5-1.95,1-2,2.84-1.29,4.75,3.56,9,7.61,17.7,14,25.09C237.11,98.36,239.16,100.12,242,99.87ZM274.9,83.34h-.08c0-4.32,0-8.64,0-13,0-1.93-.41-3.9-2.79-4-2.6-.08-3.26,1.88-3.26,4.07q0,12.7,0,25.42c0,2,.43,3.79,2.86,3.9,2.75.13,3.23-1.83,3.25-4C274.93,91.65,274.9,87.49,274.9,83.34Z"/><path class="cls-2" d="M79.92,103.14h2c-.18.9,1,2.49-.2,2.59-3.4.25-1.45,2.55-1.83,4l-.29.25a1.26,1.26,0,0,0-.69.67l0,.26-.26.07a1.15,1.15,0,0,0-.66.67.32.32,0,0,1-.39.35.86.86,0,0,0-.56.51.42.42,0,0,1-.48.4c-5-.83-5-.83-5.49,4.16-8.32,6.33-18,7-27.91,6.59A6.67,6.67,0,0,1,39,122.08c-9.23-9-14.18-20-16.21-34.11,6,4,10.84,7.57,16.48,9.51,7.41,2.54,14.66,3.19,21.07-2.38,2.15-1.87,3.59-.86,5.19.43A53.18,53.18,0,0,0,76,102.22c.71.91,1.73.77,2.7.82l.2,0c.16.4.33.81.49,1.22Zm-26.2,1.5c-5.11-2.48-6.53,1.75-6.8,4.18-.46,4.22,3.39,2.31,5.48,2.27,3.11-.07,5.83-.23,3.54,5.29,2.2-2.26,4-3.35,3.05-5.5s-2.91-1.78-4.74-1.54a14.83,14.83,0,0,1-2,.23c-1.29,0-2.92.31-3.23-1.46-.27-1.48,1.13-1.76,2.22-2.19A25,25,0,0,0,53.72,104.64Z"/><path class="cls-3" d="M79.86,109.68c.38-1.4-1.57-3.7,1.83-4,1.21-.1,0-1.69.2-2.59,5.38-1.25,8.75-5.1,11.9-9.23,9.41-12.35,16.52-26,22.47-40.27a37.1,37.1,0,0,0,2.93-12c.33-5.27-2-8.49-7-10a35.79,35.79,0,0,0-21-.16c-5.88,1.73-9,6.3-11.4,11.55-2,.29-3-.53-2.76-2.64,7.86-14,17.37-18.16,33-14.48,1,.23,2,.43,2.92.64,7.52,1.67,9,.12,7.57-7.76a3.56,3.56,0,0,1,1.85-4.19c1.59-.89,3.28-1.08,4.56.37s1.53,4.12.26,5c-3.23,2.31-2.25,6.53-4.78,9a2.33,2.33,0,0,0-.22,2.25c4.86,6.3,2.85,13.14.95,19.51-5.63,18.91-15.65,35.46-28.7,50.19-2.66,3-5.78,5.64-10,5.95C82.24,107,81.55,109.06,79.86,109.68Z"/><path class="cls-4" d="M383.13,64c5.37-.36,8.43,3.55,11.12,7.15,4.9,6.56,9.22,13.56,11.92,21.39a11.65,11.65,0,0,1,.68,2.35c.33,2.49-.08,4.56-2.93,5.46s-3.82-.94-4.84-2.94c-3-6-5.58-12.24-9.42-17.84-5.73-8.35-7.13-8.39-12.88,0-3.64,5.32-6.27,11.16-9,17-1.26,2.7-2.27,5.26-6.06,3.43-3.59-1.73-2.81-4.51-1.72-7.15a110,110,0,0,1,10.46-19.51,49.27,49.27,0,0,1,5.86-6.68A8.74,8.74,0,0,1,383.13,64Z"/><path class="cls-4" d="M293.24,84.92c0,3.49-.06,7,0,10.46.06,2.68-.59,4.53-3.77,4.62-3.5.1-4.13-2-4.1-4.82,0-5.15.07-10.31,0-15.46,0-2.73.27-5.12,3.65-5.31,3.64-.21,4.39,2.16,4.3,5.17a1.87,1.87,0,0,0,.26.76c4.08-.42,8.13-.71,12.14-1.3,1.88-.28,4.39-.63,4.56-3s-2.34-2.59-3.94-3.11c-6.79-2.22-13.66-3.37-20.65-.78a5.25,5.25,0,0,1-1.88.56c-2.29-.13-5.34,1.34-6.23-2.24-.95-3.8,2.11-4.54,4.65-5,10-2,20-2.42,29.68,1.78,4.1,1.77,7.79,3.88,7.48,9.23s-4.17,7.15-8.48,8.27A32.89,32.89,0,0,1,293.24,84.92Z"/><path class="cls-5" d="M476.75,95c.11,2.85-.27,4.49-2.67,4.86-2.2.34-3.77-.18-4.81-2.37-2.75-5.81-5.29-11.72-8.87-17.1-6.13-9.22-8.51-9.37-14.3,0-3.28,5.31-5.84,11.06-8.78,16.58-1.06,2-2.08,4.77-5,3.19-2.41-1.28-3.83-3.25-2.42-6.58,4.11-9.75,8.9-19,16.44-26.59,3.64-3.66,9.15-4.23,12.91-.83,8.38,7.58,13,17.59,17.41,27.75A1.73,1.73,0,0,1,476.75,95Z"/><path class="cls-3" d="M142.62,87.08c0-2-.08-4,0-6s-.65-4.93,2.64-4.87,2.6,2.7,2.51,4.88c-.11,3.15,0,6.31-.13,9.47S149,95,152.19,95c4.36,0,8.64-.21,12.63-2.16,8-3.91,8.67-13,1.26-17.9s-15.73-4.47-24-3.06c-1.88.32-4.24,1.87-5.1-.88s1.71-3.74,3.83-4.09c9.31-1.54,18.59-1.6,27.3,2.57,5.71,2.74,9.66,7.11,9.56,14S174,94.76,168.06,97.37a35.53,35.53,0,0,1-19.47,2.5c-4.56-.61-6.42-2.81-6-7.31C142.77,90.75,142.62,88.91,142.62,87.08Z"/><path class="cls-3" d="M181.62,89.88c3.52-7.71,7.49-15.14,13.79-21,4.22-3.92,8.73-4.07,12.86-.08,7.44,7.17,12,16.23,15.89,25.66.8,2,1,4.6-1.7,5.53-2.86,1-3.57-1.55-4.46-3.5-3.18-7-6.34-13.94-11.15-20-3.88-4.86-5.91-5-9.77-.17a83,83,0,0,0-11,18.77c-.17.43-.35.86-.53,1.29a.43.43,0,0,1-.23.57l-.7,1.54c0,.23-.05.35-.28.37-3.76.29-5.47-.86-3.31-4.74A7.54,7.54,0,0,0,181.62,89.88Z"/><path class="cls-3" d="M242,99.87c-2.83.25-4.88-1.51-6.62-3.54-6.38-7.39-10.43-16.11-14-25.09-.76-1.91-.66-3.79,1.29-4.75,2.35-1.17,3.31.85,4,2.5,2.74,6.42,5.49,12.81,9.28,18.7,4.72,7.33,7.27,7.37,12.09,0a105.59,105.59,0,0,0,9.14-18.22c.77-1.89,1.48-4.12,4.13-3,2.31,1,2.18,3,1.35,5.09-3.39,8.5-7.39,16.67-13.12,23.88C247.66,97.82,245.56,100,242,99.87Z"/><path class="cls-4" d="M415.67,71.62c-3-1.62-6.21-.3-9.28-.86-1.75-.32-3.93-.42-4-2.9s1.77-3.5,4-3.52c8.8-.06,17.61,0,26.42,0a2.88,2.88,0,0,1,3.1,3.15,2.92,2.92,0,0,1-3,3.23l-1.49.12c-8.42.55-8.42.55-8.41,8.79,0,5.16,0,10.31,0,15.47,0,1.86.12,3.94-2.09,4.57-1.88.53-4,.86-5.09-1.62,1.43-.83,1.26-1.54-.15-2.16.15-2.3.29-4.61.44-6.91,2-5.89.75-11.92.73-17.89Z"/><path class="cls-3" d="M274.9,83.34c0,4.15,0,8.31,0,12.46,0,2.16-.5,4.12-3.25,4-2.43-.11-2.85-2-2.86-3.9q0-12.7,0-25.42c0-2.19.66-4.15,3.26-4.07,2.38.08,2.77,2,2.79,4,0,4.32,0,8.64,0,13Z"/><path class="cls-4" d="M327.75,94.14c-1.38-.62-1.65-2.08-2.37-3.19,3.28-3.59.88-5.83-1.91-8-.05-4.79-.12-9.58-.14-14.37,0-2.49,1.24-4.16,3.72-4.39,1.52-.14,3.81-.66,3.36,2.35-3.82,2.55-1.64,5.71-1.93,8.62l1.54.15.47-8.69c2.26.4,1.54,2.22,1.58,3.55.09,3.29,0,6.59,0,9.89,0,8.52.77,9.73,8.21,12.86a3.05,3.05,0,0,1-2.79.2C334.06,91.33,330.61,89.88,327.75,94.14Zm2.57-12.37c-.24-.72.28-2.16-1.06-2.23-1.77-.09-1.89,1.46-1.91,2.78,0,1.14,0,2.56,1.64,2.35S330.17,83,330.32,81.77Z"/><path class="cls-5" d="M327.75,94.14c2.86-4.26,6.31-2.81,9.77-1a3.05,3.05,0,0,0,2.79-.2c4.3,0,8.6,0,12.89,0,1.69,0,3.38.16,3.78,2.34a3.46,3.46,0,0,1-2.13,4.09C348,101.67,332.7,101.11,327.75,94.14Z"/><path class="cls-6" d="M77,40.35c-.25,2.11.72,2.93,2.76,2.64-3.61,7.77-6.24,16-11.85,22.83C68.67,56.46,73.25,48.55,77,40.35Z"/><path class="cls-5" d="M323.47,83c2.79,2.14,5.19,4.38,1.91,8A10.87,10.87,0,0,1,323.47,83Z"/><path class="cls-6" d="M181.62,89.88a7.54,7.54,0,0,1-.63,4.29c-2.16,3.88-.45,5,3.31,4.74-.77,1.85-2.13,1.84-3.61,1a3.34,3.34,0,0,1-1.78-3.75A15.54,15.54,0,0,1,181.62,89.88Z"/><path class="cls-5" d="M415.67,71.62l1.16-.54c0,6,1.29,12-.73,17.89Q415.89,80.3,415.67,71.62Z"/><path class="cls-3" d="M71,117c.44-5,.44-5,5.49-4.16A16.59,16.59,0,0,1,71,117Z"/><path class="cls-3" d="M78.67,103c-1-.05-2,.09-2.7-.82Z"/><path class="cls-6" d="M185.51,96.43c.18-.43.36-.86.53-1.29A.87.87,0,0,1,185.51,96.43Z"/><path class="cls-5" d="M415.66,95.88c1.41.62,1.58,1.33.15,2.16Z"/><path class="cls-6" d="M184.58,98.54l.7-1.54C185.39,97.67,185.32,98.26,184.58,98.54Z"/><path class="cls-3" d="M79.92,103.14l-.56,1.15c-.16-.41-.33-.82-.49-1.22Z"/><path class="cls-3" d="M78.88,110.6a1.26,1.26,0,0,1,.69-.67Z"/><path class="cls-3" d="M77.91,111.6a1.15,1.15,0,0,1,.66-.67Z"/><path class="cls-3" d="M77,112.46a.86.86,0,0,1,.56-.51A.46.46,0,0,1,77,112.46Z"/><path class="cls-1" d="M53.72,104.64a25,25,0,0,1-2.46,1.28c-1.09.43-2.49.71-2.22,2.19.31,1.77,1.94,1.46,3.23,1.46a14.83,14.83,0,0,0,2-.23c1.83-.24,3.81-.62,4.74,1.54s-.85,3.24-3.05,5.5c2.29-5.52-.43-5.36-3.54-5.29-2.09,0-5.94,2-5.48-2.27C47.19,106.39,48.61,102.16,53.72,104.64Z"/><path class="cls-5" d="M330.49,66.65,330,75.34l-1.54-.15c.29-2.91-1.89-6.07,1.93-8.62Z"/><path class="cls-5" d="M330.32,81.77c-.15,1.22.25,2.7-1.33,2.9s-1.66-1.21-1.64-2.35c0-1.32.14-2.87,1.91-2.78C330.6,79.61,330.08,81.05,330.32,81.77Z"/></g></g></svg>