<svg width="24" height="24" viewBox="0 0 24 24" fill="none" xmlns="http://www.w3.org/2000/svg">
<path d="M12 15.7811C13.0609 15.7811 14.0783 15.3654 14.8284 14.6256C15.5786 13.8857 16 12.8822 16 11.8359C16 10.7895 15.5786 9.78603 14.8284 9.04616C14.0783 8.30628 13.0609 7.89063 12 7.89062C10.9391 7.89063 9.92172 8.30628 9.17157 9.04616C8.42143 9.78603 8 10.7895 8 11.8359C8 12.8822 8.42143 13.8857 9.17157 14.6256C9.92172 15.3654 10.9391 15.7811 12 15.7811Z" stroke="#2E2E2E" stroke-width="1.5" stroke-linecap="round" stroke-linejoin="round"/>
<path d="M3 15.781V7.89053C3 6.5826 3.52678 5.32824 4.46447 4.4034C5.40215 3.47856 6.67392 2.95898 8 2.95898H16C17.3261 2.95898 18.5979 3.47856 19.5355 4.4034C20.4732 5.32824 21 6.5826 21 7.89053V15.781C21 17.0889 20.4732 18.3433 19.5355 19.2681C18.5979 20.193 17.3261 20.7125 16 20.7125H8C6.67392 20.7125 5.40215 20.193 4.46447 19.2681C3.52678 18.3433 3 17.0889 3 15.781Z" stroke="#2E2E2E" stroke-width="1.5"/>
<path d="M17.5 6.42116L17.51 6.41016" stroke="#2E2E2E" stroke-width="1.5" stroke-linecap="round" stroke-linejoin="round"/>
</svg>
