<svg width="24" height="24" viewBox="0 0 24 24" fill="none" xmlns="http://www.w3.org/2000/svg">
<path d="M21.959 13.531V20.8089H17.681V14.0182C17.681 12.3119 17.062 11.148 15.514 11.148C14.332 11.148 13.628 11.9331 13.319 12.6916C13.206 12.9628 13.177 13.3406 13.177 13.7203V20.8089H8.897C8.897 20.8089 8.955 9.30857 8.897 8.11612H13.177V9.91515L13.149 9.95657H13.177V9.91515C13.745 9.05213 14.76 7.81826 17.033 7.81826C19.848 7.81826 21.959 9.63306 21.959 13.531ZM4.421 1.99805C2.958 1.99805 2 2.9449 2 4.19061C2 5.4087 2.93 6.38416 4.365 6.38416H4.393C5.886 6.38416 6.813 5.4087 6.813 4.19061C6.787 2.9449 5.886 1.99805 4.421 1.99805ZM2.254 20.8089H6.532V8.11612H2.254V20.8089Z" fill="#2F2F2F"/>
</svg>
