<svg width="100" height="100" viewBox="0 0 100 100" fill="none" xmlns="http://www.w3.org/2000/svg">
<path d="M88.5418 54.1654V35.4154C88.5418 29.89 86.3469 24.591 82.4399 20.684C78.5329 16.777 73.2338 14.582 67.7085 14.582H32.2918C26.7665 14.582 21.4674 16.777 17.5604 20.684C13.6534 24.591 11.4585 29.89 11.4585 35.4154V64.582C11.4585 67.3179 11.9974 70.027 13.0443 72.5546C14.0913 75.0822 15.6259 77.3789 17.5604 79.3134C21.4674 83.2204 26.7665 85.4154 32.2918 85.4154H58.3752" stroke="#EEEEEE" stroke-width="7.5" stroke-linecap="round" stroke-linejoin="round"/>
<path d="M12.542 70.8309L23.9587 57.4975C25.458 56.0084 27.4258 55.083 29.529 54.878C31.6322 54.673 33.7416 55.201 35.5003 56.3725C37.259 57.5441 39.3685 58.072 41.4717 57.867C43.5749 57.662 45.5427 56.7366 47.042 55.2475L56.7503 45.5392C59.5399 42.7402 63.2332 41.0234 67.1713 40.6952C71.1094 40.367 75.036 41.4488 78.2503 43.7475L88.542 51.7059M33.3753 42.3725C34.2836 42.3671 35.182 42.1827 36.019 41.8301C36.8561 41.4774 37.6155 40.9634 38.2539 40.3172C38.8923 39.6711 39.3972 38.9055 39.7398 38.0643C40.0823 37.223 40.2558 36.3225 40.2503 35.4142C40.2449 34.5059 40.0605 33.6075 39.7079 32.7705C39.3552 31.9334 38.8412 31.174 38.195 30.5356C37.5489 29.8972 36.7833 29.3923 35.9421 29.0497C35.1008 28.7072 34.2003 28.5337 33.292 28.5392C31.4576 28.5502 29.7027 29.2896 28.4134 30.5945C27.1241 31.8994 26.4059 33.6631 26.417 35.4975C26.428 37.3319 27.1674 39.0868 28.4723 40.3761C29.7772 41.6655 31.5409 42.3836 33.3753 42.3725Z" stroke="#EEEEEE" stroke-width="7.5" stroke-linecap="round" stroke-linejoin="round"/>
<path d="M77.9458 83.3333V62.5" stroke="#EEEEEE" stroke-width="7.5" stroke-miterlimit="10" stroke-linecap="round"/>
<path d="M68.3916 74.5625L76.5874 82.7583C76.7655 82.9372 76.9772 83.0792 77.2103 83.176C77.4434 83.2729 77.6933 83.3228 77.9458 83.3228C78.1982 83.3228 78.4481 83.2729 78.6812 83.176C78.9143 83.0792 79.126 82.9372 79.3041 82.7583L87.4999 74.5625" stroke="#EEEEEE" stroke-width="7.5" stroke-linecap="round" stroke-linejoin="round"/>
</svg>
