<svg xmlns="http://www.w3.org/2000/svg" viewBox="0 0 300 93"><defs><style>.cls-1{fill:#fefefe;}.cls-2{fill:#200020;}.cls-3{fill:#fdfdfd;}.cls-4{fill:#d90181;}.cls-5{fill:#2b0d2b;}.cls-6{fill:#fcfcfc;}</style></defs><g id="Capa_2" data-name="Capa 2"><g id="Capa_1-2" data-name="Capa 1"><path class="cls-1" d="M203.94,92.9Q104,92.9,4.1,93C.68,93,0,92.33,0,88.91.19,64.3.1,39.68.1,15.07,4,14,8,14.81,11.89,14.67c3.3-.11,4.72-1.44,4.81-4.78s-.76-6.57.39-9.79h13c1.47,2.17.49,4.53.49,6.8,0,19.78,0,39.57,0,59.35,0,6.33,5.1,9.4,10.8,6.73,2.55-1.2,2.12-3.58,2.13-5.64.1-10.8,0-21.61,0-32.42a23.22,23.22,0,0,1,.32-5.46c.79-3.2,2.68-3.78,4.88-1.36,2,2.23,3.31,5,4.75,7.6C59.22,46,65,56.34,70.75,66.65c1.43,2.55,2.53,5.83,5.88,6.37,4.75.77,9.66,1.08,14.35-.24,2.8-.78,2.49-3.67,2.51-6,.11-9.8.06-19.61.05-29.42,0-11,.06-21.95-.05-32.92,0-1.49-.22-3,.54-4.39Q195,.1,295.87,0c3.42,0,4.32.64,4.1,4.09-.37,5.64-.1,11.31-.1,17a2.9,2.9,0,0,1-1.62.55c-2.82.08-5.64-.12-8.47,0s-4.31,1.39-4.34,4.26q-.19,21.68,0,43.33c0,2.88,1.51,4.17,4.34,4.26s5.65-.11,8.48,0a3,3,0,0,1,1.61.57c0,5.33-.15,10.65.07,16,.1,2.51-.57,3.07-3.07,3.06-26.31-.11-52.62-.07-78.94-.07-1.06-2.41-.39-4.93-.39-7.39,0-18.61,0-37.22-.08-55.84,0-2.65,1.26-6.31-2-7.56s-7.46-1.72-10.53.69c-2.66,2.1-4.64,1.52-7.23.3-13.84-6.52-26.36-1-31.29,13.57a33.38,33.38,0,0,0,1,24.8C172.51,73.26,184.5,77.57,196,72c1-.51,2-1.12,3.07-1.66,3.07-1.59,5-.58,5.07,2.77C204.33,79.67,204.92,86.3,203.94,92.9Z"/><path class="cls-2" d="M94,.1A17.34,17.34,0,0,1,95,5.88c0,21-.17,41.91.07,62.86,0,4.91-1.75,5.65-6.31,6.32C77.11,76.77,70.56,72.31,66,61.66S54.87,41.23,49.19,31.08c-.78-1.41-1.67-2.77-2.53-4.17C44.51,28,45.41,29.7,45.4,31c-.08,12.81-.18,25.61,0,38.41C45.5,73.51,44.16,75,40,74.86c-12.2-.29-10.74,1.19-10.77-10.6,0-19.29,0-38.58,0-57.87A16.78,16.78,0,0,1,30.08.1h21c2.23,1,3.4,3,4.56,5.05,7.11,12.52,14,25.16,21.28,38.1,1.11-1.31.78-2.61.78-3.76,0-10.93,0-21.86,0-32.78,0-2.42-.42-5.1,2.32-6.61Z"/><path class="cls-2" d="M203.94,92.9c-2.32-3.85-.95-8.09-1.19-12.16-.21-3.43-.05-6.89-.05-10.3-1.9-.57-2.58.93-3.6,1.58C187,79.81,171.92,75.47,166,62.33c-3.52-7.88-3.82-16.06-1.69-24.36,4.52-17.58,22-25.11,38.2-13.73-.3-4.38,2.43-4.38,5.47-4.34,12.45.19,10.78-1.39,10.82,10.93.07,18.6,0,37.2,0,55.8a14.55,14.55,0,0,1-.94,6.27Z"/><path class="cls-3" d="M80,.1c-1.26,1.72-1.19,3.7-1.18,5.7q0,18,0,35.9c0,1.58.51,3.27-1,5.61L51.06.1Z"/><path class="cls-4" d="M17.09.1c1.85,4.27.72,8.77.92,13.16A2.33,2.33,0,0,1,15.72,16C10.51,15.87,5.19,17.23.1,15.07c0-4.33.11-8.66,0-13C0,.35.36,0,2.1,0,7.09.2,12.09.1,17.09.1Z"/><path class="cls-5" d="M298.89,21c.33,0,.66,0,1,.07V73.94l-1-.15c-1.68-1.73-1.54-4-1.55-6.08q-.09-20.34,0-40.68C297.3,24.9,297.15,22.67,298.89,21Z"/><path class="cls-2" d="M137.43,50.66c-5.16,0-10.33.21-15.48-.06-3.53-.19-3.85,1.16-3,4.07,1.48,5.26,4.44,9,10,9.84s10.61-.17,13.94-5.44c1.67-2.65,10.57-4.26,13-2.49,1.42,1.06.88,2.3.48,3.59a21.15,21.15,0,0,1-8.76,11.75c-19,12.65-43.41.89-45.12-21.7-1.54-20.4,13.44-34.48,33.36-31.28,12.68,2,21.64,12.29,21.84,28.09,0,2.84-1.69,3.67-4.23,3.65C148.09,50.63,142.76,50.66,137.43,50.66Z"/><path class="cls-2" d="M276.79,40.57c-.3,5.46.55,11.94-.73,18.37-1.75,8.73-6.89,14.1-15.54,16.19a40.42,40.42,0,0,1-16.35.43c-11.09-1.89-17.39-8.57-18-20C225.63,45,226,34.32,226,23.7c0-.5-.13-1.14.13-1.47,3.56-4.58,8.52-1.53,12.81-2.21,2.66-.41,3.21,1.65,3.2,3.91,0,9.13-.12,18.27,0,27.4.13,7.29,3.14,10.74,8.91,10.84,5.59.1,8.79-2.57,9.13-8.88.47-8.61.28-17.25.32-25.88,0-7.47,0-7.49,7.24-7.47,9.73,0,9.06-1.06,9.05,9.17C276.78,32.6,276.79,36.08,276.79,40.57Z"/><path class="cls-2" d="M298.89,21l-.06,52.81c-4.23,2.21-8.71.82-13.07.81-1.76,0-2.12-1.8-2.12-3.42q0-23.88,0-47.77c0-1.61.37-3.36,2.21-3.3C290.21,20.26,294.69,18.71,298.89,21Z"/><path class="cls-3" d="M203.65,47.56a29.18,29.18,0,0,1-1.4,8.8c-1.77,4.89-5.15,7.57-10.45,7.69s-9-2.28-10.85-7.12a25.52,25.52,0,0,1,.24-19.42,10.47,10.47,0,0,1,10.47-7c5,.08,8.39,2.73,10.28,7.3A28.92,28.92,0,0,1,203.65,47.56Z"/><path class="cls-6" d="M130.45,40.27c-2.66,0-5.33-.16-8,0-3.16.23-3.81-.79-2.43-3.6,2.24-4.56,6-6.57,10.86-6.46,4.53.1,8,2.09,9.81,6.4.91,2.18,1,3.88-2.29,3.66C135.78,40.13,133.11,40.27,130.45,40.27Z"/></g></g></svg>