<svg width="100" height="100" viewBox="0 0 100 100" fill="none" xmlns="http://www.w3.org/2000/svg">
<path d="M89.3008 23.5C89.0808 23.2359 88.8055 23.0235 88.4943 22.8777C88.1831 22.7319 87.8437 22.6563 87.5 22.6562H23.8281L21.3398 8.95703C21.242 8.41698 20.9577 7.92841 20.5365 7.57648C20.1153 7.22456 19.584 7.0316 19.0352 7.03125H9.375C8.7534 7.03125 8.15726 7.27818 7.71772 7.71772C7.27818 8.15726 7.03125 8.7534 7.03125 9.375C7.03125 9.9966 7.27818 10.5927 7.71772 11.0323C8.15726 11.4718 8.7534 11.7188 9.375 11.7188H17.0781L27.1602 67.1641C27.4762 68.9123 28.3281 70.519 29.5977 71.7617C28.0634 72.9873 26.9173 74.6313 26.2981 76.4948C25.679 78.3582 25.6133 80.3613 26.1091 82.2613C26.6048 84.1613 27.6408 85.8769 29.0914 87.2003C30.5421 88.5237 32.3454 89.3982 34.2828 89.7179C36.2203 90.0376 38.2089 89.7888 40.0078 89.0016C41.8068 88.2144 43.3389 86.9225 44.4188 85.2825C45.4987 83.6425 46.08 81.7245 46.0923 79.7609C46.1047 77.7973 45.5475 75.8722 44.4883 74.2188H64.8867C63.6722 76.1195 63.1249 78.3704 63.3312 80.6166C63.5376 82.8627 64.4858 84.9763 66.0263 86.6239C67.5668 88.2715 69.612 89.3594 71.8393 89.716C74.0665 90.0726 76.3491 89.6776 78.327 88.5933C80.3049 87.5091 81.8656 85.7972 82.7629 83.7277C83.6602 81.6582 83.8431 79.3489 83.2827 77.1641C82.7222 74.9792 81.4504 73.043 79.6677 71.661C77.8851 70.2789 75.6931 69.5296 73.4375 69.5312H35.6133C34.6985 69.5314 33.8126 69.2104 33.1102 68.6244C32.4077 68.0383 31.9333 67.2243 31.7695 66.3242L30.3633 58.5938H76.6016C78.6142 58.5943 80.5632 57.8884 82.1087 56.5992C83.6542 55.3099 84.6982 53.5192 85.0586 51.5391L89.8047 25.418C89.866 25.0809 89.8526 24.7344 89.7656 24.4031C89.6785 24.0717 89.5199 23.7634 89.3008 23.5ZM41.4062 79.6875C41.4062 80.7691 41.0855 81.8264 40.4846 82.7258C39.8837 83.6251 39.0296 84.326 38.0303 84.74C37.031 85.1539 35.9314 85.2622 34.8706 85.0512C33.8098 84.8402 32.8353 84.3193 32.0705 83.5545C31.3057 82.7897 30.7848 81.8152 30.5738 80.7544C30.3628 79.6936 30.4711 78.594 30.885 77.5947C31.299 76.5954 31.9999 75.7413 32.8992 75.1404C33.7986 74.5395 34.8559 74.2188 35.9375 74.2188C37.3879 74.2188 38.7789 74.7949 39.8045 75.8205C40.8301 76.8461 41.4062 78.2371 41.4062 79.6875ZM78.9062 79.6875C78.9062 80.7691 78.5855 81.8264 77.9846 82.7258C77.3837 83.6251 76.5296 84.326 75.5303 84.74C74.531 85.1539 73.4314 85.2622 72.3706 85.0512C71.3098 84.8402 70.3353 84.3193 69.5705 83.5545C68.8057 82.7897 68.2848 81.8152 68.0738 80.7544C67.8628 79.6936 67.9711 78.594 68.385 77.5947C68.799 76.5954 69.4999 75.7413 70.3992 75.1404C71.2986 74.5395 72.3559 74.2188 73.4375 74.2188C74.8879 74.2188 76.2789 74.7949 77.3045 75.8205C78.3301 76.8461 78.9062 78.2371 78.9062 79.6875ZM80.4453 50.6992C80.2816 51.5993 79.8071 52.4133 79.1047 52.9994C78.4022 53.5854 77.5164 53.9064 76.6016 53.9062H29.5117L24.6836 27.3438H84.6914L80.4453 50.6992Z" fill="#A3A3A3"/>
</svg>
