<svg width="30" height="30" viewBox="0 0 30 30" fill="none" xmlns="http://www.w3.org/2000/svg">
<path d="M26.7902 7.05C26.7243 6.97078 26.6417 6.90704 26.5483 6.8633C26.4549 6.81956 26.3531 6.79688 26.25 6.79688H7.14844L6.40195 2.68711C6.37259 2.52509 6.2873 2.37852 6.16095 2.27294C6.0346 2.16737 5.8752 2.10948 5.71055 2.10938H2.8125C2.62602 2.10938 2.44718 2.18345 2.31532 2.31532C2.18345 2.44718 2.10938 2.62602 2.10938 2.8125C2.10938 2.99898 2.18345 3.17782 2.31532 3.30968C2.44718 3.44155 2.62602 3.51562 2.8125 3.51562H5.12344L8.14805 20.1492C8.24287 20.6737 8.49842 21.1557 8.8793 21.5285C8.41902 21.8962 8.07519 22.3894 7.88944 22.9484C7.70369 23.5075 7.68399 24.1084 7.83272 24.6784C7.98144 25.2484 8.29223 25.7631 8.72743 26.1601C9.16264 26.5571 9.70361 26.8195 10.2848 26.9154C10.8661 27.0113 11.4627 26.9366 12.0023 26.7005C12.542 26.4643 13.0017 26.0768 13.3256 25.5847C13.6496 25.0927 13.824 24.5174 13.8277 23.9283C13.8314 23.3392 13.6642 22.7617 13.3465 22.2656H19.466C19.1016 22.8358 18.9375 23.5111 18.9994 24.185C19.0613 24.8588 19.3457 25.4929 19.8079 25.9872C20.27 26.4815 20.8836 26.8078 21.5518 26.9148C22.22 27.0218 22.9047 26.9033 23.4981 26.578C24.0915 26.2527 24.5597 25.7392 24.8289 25.1183C25.0981 24.4975 25.1529 23.8047 24.9848 23.1492C24.8167 22.4937 24.4351 21.9129 23.9003 21.4983C23.3655 21.0837 22.7079 20.8589 22.0312 20.8594H10.684C10.4095 20.8594 10.1438 20.7631 9.93305 20.5873C9.72232 20.4115 9.57999 20.1673 9.53086 19.8973L9.10898 17.5781H22.9805C23.5843 17.5783 24.1689 17.3665 24.6326 16.9797C25.0963 16.593 25.4094 16.0557 25.5176 15.4617L26.9414 7.62539C26.9598 7.52426 26.9558 7.42033 26.9297 7.32092C26.9036 7.22151 26.856 7.12903 26.7902 7.05ZM12.4219 23.9062C12.4219 24.2307 12.3257 24.5479 12.1454 24.8177C11.9651 25.0875 11.7089 25.2978 11.4091 25.422C11.1093 25.5462 10.7794 25.5787 10.4612 25.5154C10.1429 25.452 9.8506 25.2958 9.62115 25.0663C9.39171 24.8369 9.23545 24.5446 9.17215 24.2263C9.10885 23.9081 9.14134 23.5782 9.26551 23.2784C9.38969 22.9786 9.59997 22.7224 9.86977 22.5421C10.1396 22.3618 10.4568 22.2656 10.7812 22.2656C11.2164 22.2656 11.6337 22.4385 11.9413 22.7462C12.249 23.0538 12.4219 23.4711 12.4219 23.9062ZM23.6719 23.9062C23.6719 24.2307 23.5757 24.5479 23.3954 24.8177C23.2151 25.0875 22.9589 25.2978 22.6591 25.422C22.3593 25.5462 22.0294 25.5787 21.7112 25.5154C21.3929 25.452 21.1006 25.2958 20.8712 25.0663C20.6417 24.8369 20.4855 24.5446 20.4221 24.2263C20.3588 23.9081 20.3913 23.5782 20.5155 23.2784C20.6397 22.9786 20.85 22.7224 21.1198 22.5421C21.3896 22.3618 21.7068 22.2656 22.0312 22.2656C22.4664 22.2656 22.8837 22.4385 23.1913 22.7462C23.499 23.0538 23.6719 23.4711 23.6719 23.9062ZM24.1336 15.2098C24.0845 15.4798 23.9421 15.724 23.7314 15.8998C23.5207 16.0756 23.2549 16.1719 22.9805 16.1719H8.85352L7.40508 8.20312H25.4074L24.1336 15.2098Z" fill="#2E2E2E"/>
</svg>
