<svg width="30" height="30" viewBox="0 0 30 30" fill="none" xmlns="http://www.w3.org/2000/svg">
<path d="M25.3125 5.15625H4.6875C4.31454 5.15625 3.95685 5.30441 3.69313 5.56813C3.42941 5.83185 3.28125 6.18954 3.28125 6.5625V23.4375C3.28125 23.8105 3.42941 24.1681 3.69313 24.4319C3.95685 24.6956 4.31454 24.8438 4.6875 24.8438H25.3125C25.6855 24.8438 26.0431 24.6956 26.3069 24.4319C26.5706 24.1681 26.7188 23.8105 26.7188 23.4375V6.5625C26.7188 6.18954 26.5706 5.83185 26.3069 5.56813C26.0431 5.30441 25.6855 5.15625 25.3125 5.15625ZM7.73438 23.9062C8.36467 22.507 9.3856 21.3195 10.6745 20.4865C11.9634 19.6535 13.4654 19.2104 15 19.2104C16.5346 19.2104 18.0366 19.6535 19.3255 20.4865C20.6144 21.3195 21.6353 22.507 22.2656 23.9062H7.73438ZM25.7812 23.4375C25.7812 23.5618 25.7319 23.681 25.644 23.769C25.556 23.8569 25.4368 23.9062 25.3125 23.9062H23.2816C22.7752 22.6335 21.9827 21.4944 20.9654 20.5771C19.9482 19.6598 18.7334 18.9889 17.4152 18.6164C18.4322 18.0773 19.2395 17.2134 19.7086 16.1623C20.1777 15.1112 20.2816 13.9334 20.0038 12.8164C19.7261 11.6994 19.0825 10.7075 18.1757 9.99857C17.2689 9.28967 16.151 8.90455 15 8.90455C13.849 8.90455 12.7311 9.28967 11.8243 9.99857C10.9175 10.7075 10.2739 11.6994 9.99616 12.8164C9.71838 13.9334 9.82232 15.1112 10.2914 16.1623C10.7605 17.2134 11.5678 18.0773 12.5848 18.6164C11.2666 18.9889 10.0519 19.6598 9.03457 20.5771C8.01728 21.4944 7.22476 22.6335 6.71836 23.9062H4.6875C4.56318 23.9062 4.44395 23.8569 4.35604 23.769C4.26814 23.681 4.21875 23.5618 4.21875 23.4375V6.5625C4.21875 6.43818 4.26814 6.31895 4.35604 6.23104C4.44395 6.14314 4.56318 6.09375 4.6875 6.09375H25.3125C25.4368 6.09375 25.556 6.14314 25.644 6.23104C25.7319 6.31895 25.7812 6.43818 25.7812 6.5625V23.4375ZM15 18.2812C14.1656 18.2812 13.35 18.0338 12.6562 17.5703C11.9624 17.1067 11.4217 16.4478 11.1024 15.6769C10.7831 14.9061 10.6995 14.0578 10.8623 13.2395C11.0251 12.4211 11.4269 11.6694 12.0169 11.0794C12.6069 10.4894 13.3586 10.0876 14.177 9.92481C14.9953 9.76203 15.8436 9.84558 16.6144 10.1649C17.3853 10.4842 18.0442 11.0249 18.5078 11.7187C18.9713 12.4125 19.2188 13.2281 19.2188 14.0625C19.2188 15.1814 18.7743 16.2544 17.9831 17.0456C17.1919 17.8368 16.1189 18.2812 15 18.2812Z" fill="#2E2E2E"/>
</svg>
