<svg width="20" height="20" viewBox="0 0 20 20" fill="none" xmlns="http://www.w3.org/2000/svg">
<path d="M17.0967 11.795L11.795 17.0967C11.6589 17.2311 11.5059 17.3319 11.3359 17.3992C11.1659 17.4664 10.9964 17.5 10.8275 17.5C10.6586 17.5 10.4906 17.4664 10.3234 17.3992C10.1561 17.3319 10.0045 17.2311 9.86835 17.0967L2.90002 10.1417C2.76835 10.0211 2.66891 9.87722 2.60169 9.71C2.53447 9.54333 2.50085 9.36778 2.50085 9.18333V3.86167C2.50085 3.48722 2.63197 3.16667 2.89419 2.9C3.15641 2.63333 3.47919 2.5 3.86252 2.5H9.18419C9.36419 2.5 9.53891 2.53639 9.70835 2.60917C9.8778 2.68194 10.0242 2.78028 10.1475 2.90417L17.0967 9.8575C17.2356 9.99361 17.3367 10.1467 17.4 10.3167C17.4634 10.4867 17.495 10.6581 17.495 10.8308C17.495 11.0036 17.4634 11.1731 17.4 11.3392C17.3367 11.5053 17.2356 11.6572 17.0967 11.795ZM11.2009 16.5067L16.5017 11.205C16.6084 11.0983 16.6617 10.9728 16.6617 10.8283C16.6617 10.6839 16.6084 10.5583 16.5017 10.4517L9.38835 3.35H3.86252C3.71252 3.35 3.58697 3.39806 3.48585 3.49417C3.38419 3.59028 3.33335 3.71306 3.33335 3.8625V9.17917C3.33335 9.24361 3.34419 9.30778 3.36585 9.37167C3.38697 9.43611 3.42419 9.495 3.47752 9.54833L10.4475 16.5067C10.5542 16.6133 10.6795 16.6667 10.8234 16.6667C10.9678 16.6667 11.0936 16.6133 11.2009 16.5067ZM5.45835 6.29833C5.69224 6.29833 5.89058 6.21722 6.05335 6.055C6.21613 5.89278 6.2978 5.69611 6.29835 5.465C6.29835 5.22889 6.21724 5.02833 6.05502 4.86333C5.8928 4.69833 5.69613 4.61556 5.46502 4.615C5.22891 4.615 5.02835 4.69694 4.86335 4.86083C4.69835 5.02472 4.61585 5.22389 4.61585 5.45833C4.61585 5.69278 4.6978 5.89111 4.86169 6.05333C5.02558 6.21556 5.22447 6.29722 5.45835 6.29833Z" fill="#2E2E2E"/>
</svg>
