<svg width="16" height="16" viewBox="0 0 16 16" fill="none" xmlns="http://www.w3.org/2000/svg">
<g clip-path="url(#clip0_513_28778)">
<path fill-rule="evenodd" clip-rule="evenodd" d="M7.2934 5.29373C7.4809 5.10647 7.73507 5.00128 8.00007 5.00128C8.26507 5.00128 8.51923 5.10647 8.70673 5.29373L12.4787 9.0644C12.6662 9.252 12.7715 9.5064 12.7715 9.77164C12.7714 10.0369 12.666 10.2912 12.4784 10.4787C12.2908 10.6662 12.0364 10.7715 11.7712 10.7715C11.5059 10.7714 11.2516 10.666 11.0641 10.4784L8.00007 7.4144L4.93607 10.4784C4.74755 10.6606 4.49499 10.7616 4.2328 10.7594C3.9706 10.7573 3.71973 10.6522 3.53424 10.4669C3.34874 10.2816 3.24345 10.0308 3.24105 9.7686C3.23865 9.5064 3.33933 9.25375 3.5214 9.06507L7.29273 5.29307L7.2934 5.29373Z" fill="#2E2E2E"/>
</g>
<defs>
<clipPath id="clip0_513_28778">
<rect width="16" height="16" fill="white" transform="matrix(-1 0 0 -1 16 16)"/>
</clipPath>
</defs>
</svg>
