<svg width="30" height="30" viewBox="0 0 30 30" fill="none" xmlns="http://www.w3.org/2000/svg">
<path d="M24.4326 22.4395C24.6968 22.7037 24.8452 23.062 24.8452 23.4356C24.8452 23.8092 24.6968 24.1676 24.4326 24.4317C24.1684 24.6959 23.8101 24.8443 23.4365 24.8443C23.0629 24.8443 22.7046 24.6959 22.4404 24.4317L15.0002 16.9892L7.55761 24.4294C7.29343 24.6936 6.93513 24.842 6.56152 24.842C6.18791 24.842 5.82961 24.6936 5.56543 24.4294C5.30125 24.1652 5.15283 23.8069 5.15283 23.4333C5.15283 23.0597 5.30125 22.7014 5.56543 22.4372L13.008 14.997L5.56777 7.55439C5.30359 7.29021 5.15518 6.93191 5.15518 6.5583C5.15518 6.18469 5.30359 5.82639 5.56777 5.5622C5.83195 5.29802 6.19026 5.14961 6.56386 5.14961C6.93747 5.14961 7.29578 5.29802 7.55996 5.5622L15.0002 13.0048L22.4428 5.56103C22.7069 5.29685 23.0653 5.14844 23.4389 5.14844C23.8125 5.14844 24.1708 5.29685 24.435 5.56103C24.6991 5.82521 24.8476 6.18352 24.8476 6.55713C24.8476 6.93073 24.6991 7.28904 24.435 7.55322L16.9924 14.997L24.4326 22.4395Z" fill="#2E2E2E"/>
</svg>
